<svg width="16" height="16" viewBox="0 0 16 16" fill="none" xmlns="http://www.w3.org/2000/svg">
<rect x="0.5" y="0.5" width="15" height="15" rx="2.5" fill="#231F20"/>
<rect x="0.5" y="0.5" width="15" height="15" rx="2.5" stroke="#231F20"/>
<path d="M12.2069 4.79303C12.3944 4.98056 12.4997 5.23487 12.4997 5.50003C12.4997 5.76519 12.3944 6.0195 12.2069 6.20703L7.20692 11.207C7.01939 11.3945 6.76508 11.4998 6.49992 11.4998C6.23475 11.4998 5.98045 11.3945 5.79292 11.207L3.79292 9.20703C3.61076 9.01843 3.50997 8.76583 3.51224 8.50363C3.51452 8.24143 3.61969 7.99062 3.8051 7.80521C3.99051 7.6198 4.24132 7.51463 4.50352 7.51236C4.76571 7.51008 5.01832 7.61087 5.20692 7.79303L6.49992 9.08603L10.7929 4.79303C10.9804 4.60556 11.2348 4.50024 11.4999 4.50024C11.7651 4.50024 12.0194 4.60556 12.2069 4.79303Z" fill="white"/>
</svg>
