<svg width="21" height="22" viewBox="0 0 21 22" fill="none" xmlns="http://www.w3.org/2000/svg">
<path d="M5.52637 6.35833H16.4737M8.89479 6.35833V5.47C8.89479 5.24589 8.98129 5.03096 9.13527 4.87249C9.28925 4.71403 9.49808 4.625 9.71584 4.625H12.2843C12.3921 4.625 12.4989 4.64686 12.5985 4.68932C12.6981 4.73179 12.7886 4.79403 12.8648 4.87249C12.9411 4.95096 13.0016 5.04411 13.0428 5.14663C13.0841 5.24915 13.1053 5.35903 13.1053 5.47V6.35833M15.3158 6.35833L14.7053 16.5633C14.6999 16.8432 14.5895 17.11 14.3972 17.3079C14.2049 17.5058 13.9456 17.6195 13.6737 17.625H8.32637C8.05446 17.6195 7.79519 17.5058 7.60289 17.3079C7.41059 17.11 7.30017 16.8432 7.29479 16.5633L6.68426 6.35833" stroke="white" stroke-width="1.02632" stroke-miterlimit="10" stroke-linecap="round" stroke-linejoin="round"/>
<path d="M10.9999 8.04602V15.5723M8.94727 8.04602L9.35779 15.5723M13.0525 8.04602L12.642 15.5723" stroke="white" stroke-width="0.684211" stroke-miterlimit="10" stroke-linecap="round" stroke-linejoin="round"/>
</svg>
