<svg width="32" height="32" viewBox="0 0 32 32" fill="none" xmlns="http://www.w3.org/2000/svg">
<mask id="path-1-inside-1_202_2357" fill="white">
<path d="M29 16C29 23.1797 23.1797 29 16 29C8.8203 29 3 23.1797 3 16C3 8.8203 8.8203 3 16 3C23.1797 3 29 8.8203 29 16Z"/>
</mask>
<path d="M27.5 16C27.5 22.3513 22.3513 27.5 16 27.5V30.5C24.0081 30.5 30.5 24.0081 30.5 16H27.5ZM16 27.5C9.64873 27.5 4.5 22.3513 4.5 16H1.5C1.5 24.0081 7.99187 30.5 16 30.5V27.5ZM4.5 16C4.5 9.64873 9.64873 4.5 16 4.5V1.5C7.99187 1.5 1.5 7.99187 1.5 16H4.5ZM16 4.5C22.3513 4.5 27.5 9.64873 27.5 16H30.5C30.5 7.99187 24.0081 1.5 16 1.5V4.5Z" fill="white" mask="url(#path-1-inside-1_202_2357)"/>
<path d="M11.7415 21.0276L16.3843 16.3848M21.0272 11.7419L16.3843 16.3848M16.3843 16.3848L11.7415 11.7419M16.3843 16.3848L21.0272 21.0276" stroke="white" stroke-width="1.5" stroke-linecap="round" stroke-linejoin="round"/>
</svg>
