<svg width="32" height="32" viewBox="0 0 32 32" fill="none" xmlns="http://www.w3.org/2000/svg">
<path fill-rule="evenodd" clip-rule="evenodd" d="M16 29C23.1797 29 29 23.1797 29 16C29 8.8203 23.1797 3 16 3C8.8203 3 3 8.8203 3 16C3 23.1797 8.8203 29 16 29ZM11.9648 10.7068C11.6933 10.5254 11.3741 10.4286 11.0476 10.4286C10.6098 10.4286 10.1899 10.6025 9.88033 10.9121C9.57075 11.2217 9.39683 11.6415 9.39683 12.0794C9.39683 12.4059 9.49364 12.725 9.67503 12.9965C9.85643 13.268 10.1142 13.4796 10.4159 13.6045C10.7175 13.7294 11.0494 13.7621 11.3697 13.6984C11.6899 13.6347 11.984 13.4775 12.2149 13.2467C12.4458 13.0158 12.603 12.7216 12.6667 12.4014C12.7304 12.0812 12.6977 11.7493 12.5728 11.4476C12.4478 11.146 12.2362 10.8882 11.9648 10.7068ZM12.6984 16.2063C10.6349 16.2063 8.57143 20.2921 8.57143 21.1587H23.4286C23.4286 20.4571 20.746 12.9048 18.4762 12.9048C17.0602 12.9048 16.4473 14.832 15.9861 16.282C15.708 17.1563 15.4851 17.8571 15.1746 17.8571C14.8548 17.8571 14.7209 17.6094 14.5568 17.3058C14.2973 16.8258 13.9625 16.2063 12.6984 16.2063Z" fill="white"/>
</svg>
