<svg width="32" height="32" viewBox="0 0 32 32" fill="none" xmlns="http://www.w3.org/2000/svg">
<path d="M6.5 11.25V25.6875C6.5 26.0356 6.36172 26.3694 6.11558 26.6156C5.86944 26.8617 5.5356 27 5.1875 27H27.9375C28.2856 27 28.6194 26.8617 28.8656 26.6156C29.1117 26.3694 29.25 26.0356 29.25 25.6875V11.25H6.5Z" fill="white"/>
<path d="M6.5 9.5H25.75V7.75H10.875V6H3V25.6875C3.00139 25.8803 3.04524 26.0704 3.12841 26.2443C3.21159 26.4182 3.33206 26.5717 3.48125 26.6938C3.5366 26.3635 3.68556 26.056 3.91046 25.8078C4.13535 25.5597 4.42673 25.3812 4.75 25.2938V11.25C4.75 10.7859 4.93437 10.3408 5.26256 10.0126C5.59075 9.68438 6.03587 9.5 6.5 9.5Z" fill="white"/>
</svg>
