<svg width="32" height="32" viewBox="0 0 32 32" fill="none" xmlns="http://www.w3.org/2000/svg">
<path d="M16.118 13.7059C22.4531 13.7059 27.5886 11.7504 27.5886 9.33823C27.5886 6.92604 22.4531 4.97058 16.118 4.97058C9.78302 4.97058 4.64746 6.92604 4.64746 9.33823C4.64746 11.7504 9.78302 13.7059 16.118 13.7059Z" fill="white"/>
<path d="M4.64746 16.6175C4.64746 18.0249 9.63275 20.0146 16.118 20.0146C22.6033 20.0146 27.5886 18.0249 27.5886 16.6175V12.6866C25.118 14.7249 20.5298 15.6469 16.118 15.6469C11.7063 15.6469 7.11805 14.7249 4.64746 12.6866V16.6175Z" fill="white"/>
<path d="M16.118 26.8087C22.6033 26.8087 27.5886 24.819 27.5886 23.4116V18.7528C25.6475 20.8881 20.8828 21.9557 16.118 21.9557C11.3533 21.9557 6.58864 20.8881 4.64746 18.7528V23.4116C4.64746 24.819 9.63275 26.8087 16.118 26.8087Z" fill="white"/>
</svg>
