<svg width="24" height="24" viewBox="0 0 24 24" fill="none" xmlns="http://www.w3.org/2000/svg">
<path d="M2.88574 8.65646V14.4275H6.73307L11.5422 19.2366V3.8473L6.73307 8.65646H2.88574ZM15.8705 11.542C15.8705 9.83952 14.8894 8.37753 13.4659 7.66578V15.4085C14.8894 14.7064 15.8705 13.2444 15.8705 11.542ZM13.4659 3.10669V5.08806C16.2456 5.91524 18.2751 8.49295 18.2751 11.542C18.2751 14.591 16.2456 17.1687 13.4659 17.9959V19.9772C17.3229 19.102 20.1987 15.6586 20.1987 11.542C20.1987 7.42532 17.3229 3.98196 13.4659 3.10669V3.10669Z" fill="white"/>
<path d="M2.62598 19.626L20.626 1.62598" stroke="white" stroke-width="1.5"/>
</svg>
