<svg width="32" height="32" viewBox="0 0 32 32" fill="none" xmlns="http://www.w3.org/2000/svg">
<g clip-path="url(#clip0_37_3869)">
<path d="M24.5281 14.5979C24.7515 16.3816 24.4121 18.1905 23.5572 19.7719C22.7023 21.3532 21.3748 22.628 19.76 23.418C18.1453 24.208 16.3241 24.4738 14.5509 24.1782C12.7778 23.8826 11.1413 23.0405 9.87012 21.7694" stroke="white" stroke-width="1.5" stroke-miterlimit="10" stroke-linecap="round" stroke-linejoin="round"/>
<path d="M7.39953 16.6529C7.26154 15.4453 7.38027 14.2222 7.74792 13.0636C8.11557 11.9051 8.72386 10.8373 9.53293 9.93025C10.342 9.02318 11.3336 8.29729 12.4427 7.80014C13.5519 7.30299 14.7536 7.0458 15.969 7.04542C17.1017 7.04392 18.2235 7.26616 19.27 7.69938C20.3165 8.13261 21.2671 8.76829 22.0673 9.56992" stroke="white" stroke-width="1.5" stroke-miterlimit="10" stroke-linecap="round" stroke-linejoin="round"/>
<path d="M4.75 13.0454L7.39937 16.6525L10.75 13.7954" stroke="white" stroke-width="1.5" stroke-miterlimit="10" stroke-linecap="round" stroke-linejoin="round"/>
<path d="M27.25 18.2954L24.5279 14.5979L21.25 17.5454" stroke="white" stroke-width="1.5" stroke-miterlimit="10" stroke-linecap="round" stroke-linejoin="round"/>
</g>
<defs>
<clipPath id="clip0_37_3869">
<rect width="24" height="20.7273" fill="white" transform="translate(4 5.13647)"/>
</clipPath>
</defs>
</svg>
